<svg width="261" height="21" viewBox="0 0 261 21" fill="none" xmlns="http://www.w3.org/2000/svg">
<path d="M35.6703 5.032C36.8743 5.032 37.8683 5.33067 38.6523 5.928C39.4363 6.516 39.9776 7.32333 40.2763 8.35H38.9323C38.6803 7.69667 38.2743 7.17867 37.7143 6.796C37.1543 6.404 36.4683 6.208 35.6563 6.208C35.0123 6.208 34.4336 6.36667 33.9203 6.684C33.4163 6.992 33.0149 7.44 32.7163 8.028C32.4269 8.60667 32.2823 9.288 32.2823 10.072C32.2823 10.8467 32.4269 11.5233 32.7163 12.102C33.0149 12.6807 33.4163 13.1287 33.9203 13.446C34.4336 13.754 35.0123 13.908 35.6563 13.908C36.4683 13.908 37.1543 13.7167 37.7143 13.334C38.2743 12.942 38.6803 12.4193 38.9323 11.766H40.2763C39.9776 12.7927 39.4363 13.6047 38.6523 14.202C37.8683 14.79 36.8743 15.084 35.6703 15.084C34.7463 15.084 33.9296 14.874 33.2203 14.454C32.5109 14.0247 31.9556 13.432 31.5543 12.676C31.1623 11.9107 30.9663 11.0427 30.9663 10.072C30.9663 9.092 31.1623 8.21933 31.5543 7.454C31.9556 6.68867 32.5109 6.096 33.2203 5.676C33.9296 5.24667 34.7463 5.032 35.6703 5.032ZM46.502 5.004C47.4167 5.004 48.238 5.21867 48.966 5.648C49.7033 6.07733 50.282 6.67933 50.702 7.454C51.122 8.21933 51.332 9.08733 51.332 10.058C51.332 11.0287 51.122 11.9013 50.702 12.676C50.282 13.4413 49.7033 14.0387 48.966 14.468C48.238 14.8973 47.4167 15.112 46.502 15.112C45.5873 15.112 44.7567 14.8973 44.01 14.468C43.2727 14.0387 42.694 13.4413 42.274 12.676C41.854 11.9013 41.644 11.0287 41.644 10.058C41.644 9.08733 41.854 8.21933 42.274 7.454C42.694 6.67933 43.2727 6.07733 44.01 5.648C44.7567 5.21867 45.5873 5.004 46.502 5.004ZM46.502 6.194C45.8207 6.194 45.2093 6.35267 44.668 6.67C44.136 6.978 43.716 7.426 43.408 8.014C43.1093 8.59267 42.96 9.274 42.96 10.058C42.96 10.8327 43.1093 11.514 43.408 12.102C43.716 12.69 44.136 13.1427 44.668 13.46C45.2093 13.768 45.8207 13.922 46.502 13.922C47.174 13.922 47.776 13.7633 48.308 13.446C48.8493 13.1287 49.2693 12.6807 49.568 12.102C49.876 11.514 50.03 10.8327 50.03 10.058C50.03 9.274 49.876 8.59267 49.568 8.014C49.2693 7.426 48.8493 6.978 48.308 6.67C47.776 6.35267 47.174 6.194 46.502 6.194ZM54.3282 11.024V15H53.0542V5.13H56.1902C57.3196 5.13 58.1642 5.396 58.7242 5.928C59.2842 6.45067 59.5642 7.16933 59.5642 8.084C59.5642 9.008 59.2749 9.73133 58.6962 10.254C58.1176 10.7673 57.2822 11.024 56.1902 11.024H54.3282ZM56.0782 9.96C56.8529 9.96 57.4082 9.79667 57.7442 9.47C58.0896 9.14333 58.2622 8.68133 58.2622 8.084C58.2622 7.468 58.0896 7.00133 57.7442 6.684C57.4082 6.35733 56.8529 6.194 56.0782 6.194H54.3282V9.96H56.0782ZM68.0663 5.13L64.8323 11.262V15H63.5443V11.262L60.2963 5.13H61.7803L64.2023 9.904L66.6103 5.13H68.0663ZM74.5871 15L72.0111 10.968H70.6251V15H69.3511V5.13H72.5991C73.7191 5.13 74.5591 5.40067 75.1191 5.942C75.6791 6.474 75.9591 7.18333 75.9591 8.07C75.9591 8.87267 75.7351 9.52133 75.2871 10.016C74.8391 10.5013 74.1904 10.8047 73.3411 10.926L76.0291 15H74.5871ZM70.6251 10.044H72.4871C73.9338 10.044 74.6571 9.40933 74.6571 8.14C74.6571 6.87067 73.9338 6.236 72.4871 6.236H70.6251V10.044ZM78.7872 5.13V15H77.5132V5.13H78.7872ZM85.3155 5.032C86.4635 5.032 87.4248 5.31667 88.1995 5.886C88.9835 6.45533 89.5108 7.23 89.7815 8.21H88.4375C88.2041 7.61267 87.8121 7.132 87.2615 6.768C86.7201 6.404 86.0761 6.222 85.3295 6.222C84.6575 6.222 84.0555 6.38067 83.5235 6.698C82.9915 7.006 82.5715 7.44933 82.2635 8.028C81.9648 8.60667 81.8155 9.288 81.8155 10.072C81.8155 10.8747 81.9695 11.57 82.2775 12.158C82.5855 12.7367 83.0101 13.1847 83.5515 13.502C84.1021 13.81 84.7321 13.964 85.4415 13.964C86.0481 13.964 86.6035 13.8333 87.1075 13.572C87.6115 13.3107 88.0221 12.9327 88.3395 12.438C88.6661 11.934 88.8621 11.346 88.9275 10.674H85.0495V9.722H90.0055V10.898C89.9215 11.682 89.6788 12.3913 89.2775 13.026C88.8761 13.6607 88.3348 14.1647 87.6535 14.538C86.9721 14.9113 86.1975 15.098 85.3295 15.098C84.3775 15.098 83.5375 14.888 82.8095 14.468C82.0815 14.0387 81.5121 13.446 81.1015 12.69C80.7001 11.9247 80.4995 11.052 80.4995 10.072C80.4995 9.092 80.7001 8.224 81.1015 7.468C81.5121 6.70267 82.0815 6.10533 82.8095 5.676C83.5375 5.24667 84.3728 5.032 85.3155 5.032ZM99.306 5.13V15H98.018V10.436H93.006V15H91.732V5.13H93.006V9.4H98.018V5.13H99.306ZM107.391 5.13V6.166H104.605V15H103.331V6.166H100.545V5.13H107.391ZM113.391 5.13V15H112.117V5.13H113.391ZM117.889 10.016L122.397 15H120.829L116.713 10.394V15H115.439V5.13H116.713V9.708L120.843 5.13H122.397L117.889 10.016ZM128.178 5.004C129.092 5.004 129.914 5.21867 130.642 5.648C131.379 6.07733 131.958 6.67933 132.378 7.454C132.798 8.21933 133.008 9.08733 133.008 10.058C133.008 11.0287 132.798 11.9013 132.378 12.676C131.958 13.4413 131.379 14.0387 130.642 14.468C129.914 14.8973 129.092 15.112 128.178 15.112C127.263 15.112 126.432 14.8973 125.686 14.468C124.948 14.0387 124.37 13.4413 123.95 12.676C123.53 11.9013 123.32 11.0287 123.32 10.058C123.32 9.08733 123.53 8.21933 123.95 7.454C124.37 6.67933 124.948 6.07733 125.686 5.648C126.432 5.21867 127.263 5.004 128.178 5.004ZM128.178 6.194C127.496 6.194 126.885 6.35267 126.344 6.67C125.812 6.978 125.392 7.426 125.084 8.014C124.785 8.59267 124.636 9.274 124.636 10.058C124.636 10.8327 124.785 11.514 125.084 12.102C125.392 12.69 125.812 13.1427 126.344 13.46C126.885 13.768 127.496 13.922 128.178 13.922C128.85 13.922 129.452 13.7633 129.984 13.446C130.525 13.1287 130.945 12.6807 131.244 12.102C131.552 11.514 131.706 10.8327 131.706 10.058C131.706 9.274 131.552 8.59267 131.244 8.014C130.945 7.426 130.525 6.978 129.984 6.67C129.452 6.35267 128.85 6.194 128.178 6.194ZM141.744 5.13L138.51 11.262V15H137.222V11.262L133.974 5.13H135.458L137.88 9.904L140.288 5.13H141.744ZM144.303 5.13V15H143.029V5.13H144.303ZM157.384 5.13V15H156.096V10.436H151.084V15H149.81V5.13H151.084V9.4H156.096V5.13H157.384ZM163.943 5.004C164.858 5.004 165.679 5.21867 166.407 5.648C167.145 6.07733 167.723 6.67933 168.143 7.454C168.563 8.21933 168.773 9.08733 168.773 10.058C168.773 11.0287 168.563 11.9013 168.143 12.676C167.723 13.4413 167.145 14.0387 166.407 14.468C165.679 14.8973 164.858 15.112 163.943 15.112C163.029 15.112 162.198 14.8973 161.451 14.468C160.714 14.0387 160.135 13.4413 159.715 12.676C159.295 11.9013 159.085 11.0287 159.085 10.058C159.085 9.08733 159.295 8.21933 159.715 7.454C160.135 6.67933 160.714 6.07733 161.451 5.648C162.198 5.21867 163.029 5.004 163.943 5.004ZM163.943 6.194C163.262 6.194 162.651 6.35267 162.109 6.67C161.577 6.978 161.157 7.426 160.849 8.014C160.551 8.59267 160.401 9.274 160.401 10.058C160.401 10.8327 160.551 11.514 160.849 12.102C161.157 12.69 161.577 13.1427 162.109 13.46C162.651 13.768 163.262 13.922 163.943 13.922C164.615 13.922 165.217 13.7633 165.749 13.446C166.291 13.1287 166.711 12.6807 167.009 12.102C167.317 11.514 167.471 10.8327 167.471 10.058C167.471 9.274 167.317 8.59267 167.009 8.014C166.711 7.426 166.291 6.978 165.749 6.67C165.217 6.35267 164.615 6.194 163.943 6.194ZM176.544 5.13V6.166H173.758V15H172.484V6.166H169.698V5.13H176.544ZM179.084 6.166V9.54H182.836V10.52H179.084V13.964H183.256V15H177.81V5.13H183.256V6.166H179.084ZM186.166 14.006H189.666V15H184.892V5.13H186.166V14.006ZM197.206 12.438C197.206 12.9047 197.094 13.3387 196.87 13.74C196.646 14.1413 196.306 14.468 195.848 14.72C195.391 14.972 194.826 15.098 194.154 15.098C193.501 15.098 192.918 14.9813 192.404 14.748C191.9 14.5053 191.494 14.1787 191.186 13.768C190.888 13.348 190.715 12.872 190.668 12.34H192.026C192.054 12.62 192.148 12.8953 192.306 13.166C192.474 13.4273 192.708 13.6467 193.006 13.824C193.314 13.992 193.683 14.076 194.112 14.076C194.672 14.076 195.102 13.9267 195.4 13.628C195.699 13.3293 195.848 12.9467 195.848 12.48C195.848 12.0787 195.741 11.752 195.526 11.5C195.321 11.248 195.064 11.052 194.756 10.912C194.448 10.7627 194.028 10.604 193.496 10.436C192.871 10.2307 192.367 10.0393 191.984 9.862C191.611 9.67533 191.289 9.4 191.018 9.036C190.757 8.672 190.626 8.19133 190.626 7.594C190.626 7.08067 190.748 6.628 190.99 6.236C191.242 5.844 191.597 5.54067 192.054 5.326C192.521 5.11133 193.067 5.004 193.692 5.004C194.663 5.004 195.433 5.242 196.002 5.718C196.572 6.18467 196.903 6.782 196.996 7.51H195.624C195.55 7.118 195.349 6.77267 195.022 6.474C194.696 6.17533 194.252 6.026 193.692 6.026C193.179 6.026 192.768 6.16133 192.46 6.432C192.152 6.69333 191.998 7.06667 191.998 7.552C191.998 7.93467 192.096 8.24733 192.292 8.49C192.498 8.72333 192.75 8.91 193.048 9.05C193.347 9.18067 193.758 9.33 194.28 9.498C194.915 9.70333 195.424 9.89933 195.806 10.086C196.198 10.2727 196.53 10.5573 196.8 10.94C197.071 11.3133 197.206 11.8127 197.206 12.438ZM203.652 14.006H207.152V15H202.378V5.13H203.652V14.006ZM209.723 14.006H213.223V15H208.449V5.13H209.723V14.006ZM218.887 5.032C220.091 5.032 221.085 5.33067 221.869 5.928C222.653 6.516 223.194 7.32333 223.493 8.35H222.149C221.897 7.69667 221.491 7.17867 220.931 6.796C220.371 6.404 219.685 6.208 218.873 6.208C218.229 6.208 217.65 6.36667 217.137 6.684C216.633 6.992 216.232 7.44 215.933 8.028C215.644 8.60667 215.499 9.288 215.499 10.072C215.499 10.8467 215.644 11.5233 215.933 12.102C216.232 12.6807 216.633 13.1287 217.137 13.446C217.65 13.754 218.229 13.908 218.873 13.908C219.685 13.908 220.371 13.7167 220.931 13.334C221.491 12.942 221.897 12.4193 222.149 11.766H223.493C223.194 12.7927 222.653 13.6047 221.869 14.202C221.085 14.79 220.091 15.084 218.887 15.084C217.963 15.084 217.146 14.874 216.437 14.454C215.728 14.0247 215.172 13.432 214.771 12.676C214.379 11.9107 214.183 11.0427 214.183 10.072C214.183 9.092 214.379 8.21933 214.771 7.454C215.172 6.68867 215.728 6.096 216.437 5.676C217.146 5.24667 217.963 5.032 218.887 5.032ZM228.222 14.02C229.808 12.956 231.078 11.9013 232.03 10.856C232.982 9.80133 233.458 8.82133 233.458 7.916C233.458 7.356 233.313 6.908 233.024 6.572C232.744 6.22667 232.286 6.054 231.652 6.054C230.998 6.054 230.504 6.264 230.168 6.684C229.832 7.09467 229.645 7.664 229.608 8.392H228.348C228.413 7.29067 228.754 6.446 229.37 5.858C229.986 5.26067 230.779 4.962 231.75 4.962C232.674 4.962 233.406 5.20933 233.948 5.704C234.489 6.19867 234.76 6.89867 234.76 7.804C234.76 8.55067 234.517 9.31133 234.032 10.086C233.556 10.8513 232.954 11.5653 232.226 12.228C231.507 12.8813 230.765 13.4367 230 13.894H235.012V14.944H228.222V14.02ZM236.375 10.002C236.375 11.5887 236.636 12.8253 237.159 13.712C237.682 14.5987 238.587 15.042 239.875 15.042C241.163 15.042 242.068 14.5987 242.591 13.712C243.123 12.8253 243.389 11.5887 243.389 10.002C243.389 8.434 243.123 7.20667 242.591 6.32C242.068 5.43333 241.163 4.99 239.875 4.99C238.587 4.99 237.682 5.43333 237.159 6.32C236.636 7.19733 236.375 8.42467 236.375 10.002ZM242.129 10.002C242.129 10.814 242.068 11.4953 241.947 12.046C241.835 12.5873 241.616 13.0213 241.289 13.348C240.962 13.6747 240.491 13.838 239.875 13.838C239.268 13.838 238.802 13.6747 238.475 13.348C238.148 13.0213 237.924 12.5873 237.803 12.046C237.691 11.4953 237.635 10.814 237.635 10.002C237.635 9.19933 237.691 8.52733 237.803 7.986C237.924 7.44467 238.148 7.01533 238.475 6.698C238.802 6.37133 239.268 6.208 239.875 6.208C240.491 6.208 240.962 6.37133 241.289 6.698C241.616 7.01533 241.835 7.44467 241.947 7.986C242.068 8.52733 242.129 9.19933 242.129 10.002ZM244.765 14.02C246.351 12.956 247.621 11.9013 248.573 10.856C249.525 9.80133 250.001 8.82133 250.001 7.916C250.001 7.356 249.856 6.908 249.567 6.572C249.287 6.22667 248.829 6.054 248.195 6.054C247.541 6.054 247.047 6.264 246.711 6.684C246.375 7.09467 246.188 7.664 246.151 8.392H244.891C244.956 7.29067 245.297 6.446 245.913 5.858C246.529 5.26067 247.322 4.962 248.293 4.962C249.217 4.962 249.949 5.20933 250.491 5.704C251.032 6.19867 251.303 6.89867 251.303 7.804C251.303 8.55067 251.06 9.31133 250.575 10.086C250.099 10.8513 249.497 11.5653 248.769 12.228C248.05 12.8813 247.308 13.4367 246.543 13.894H251.555V14.944H244.765V14.02ZM252.918 10.002C252.918 11.5887 253.179 12.8253 253.702 13.712C254.225 14.5987 255.13 15.042 256.418 15.042C257.706 15.042 258.611 14.5987 259.134 13.712C259.666 12.8253 259.932 11.5887 259.932 10.002C259.932 8.434 259.666 7.20667 259.134 6.32C258.611 5.43333 257.706 4.99 256.418 4.99C255.13 4.99 254.225 5.43333 253.702 6.32C253.179 7.19733 252.918 8.42467 252.918 10.002ZM258.672 10.002C258.672 10.814 258.611 11.4953 258.49 12.046C258.378 12.5873 258.159 13.0213 257.832 13.348C257.505 13.6747 257.034 13.838 256.418 13.838C255.811 13.838 255.345 13.6747 255.018 13.348C254.691 13.0213 254.467 12.5873 254.346 12.046C254.234 11.4953 254.178 10.814 254.178 10.002C254.178 9.19933 254.234 8.52733 254.346 7.986C254.467 7.44467 254.691 7.01533 255.018 6.698C255.345 6.37133 255.811 6.208 256.418 6.208C257.034 6.208 257.505 6.37133 257.832 6.698C258.159 7.01533 258.378 7.44467 258.49 7.986C258.611 8.52733 258.672 9.19933 258.672 10.002Z" fill="white"/>
<path d="M7.96375 3C3.56625 3 0 6.55925 0 10.9494C0 15.3395 3.56625 18.8975 7.96375 18.8975C12.3625 18.8975 15.9275 15.3395 15.9275 10.9494C15.9275 6.55925 12.3625 3 7.96375 3ZM7.96375 18.1365C3.9925 18.1365 0.7625 14.9128 0.7625 10.9506C0.7625 6.98591 3.9925 3.76225 7.96375 3.76225C11.935 3.76225 15.165 6.9859 15.165 10.9494C15.165 14.9128 11.935 18.1365 7.96375 18.1365Z" fill="white"/>
<path d="M10.7562 12.5123C10.7489 12.4983 10.7386 12.4861 10.7261 12.4764C10.7136 12.4667 10.6991 12.4598 10.6837 12.4562C10.6512 12.45 10.6187 12.4562 10.5937 12.4774C10.0224 12.929 9.04119 13.2696 8.31119 13.2696C6.89869 13.2696 5.91118 12.3152 5.91118 10.9492C5.91118 9.5831 6.89869 8.62873 8.31119 8.62873C9.07495 8.62873 9.8587 8.87449 10.3562 9.26997C10.3812 9.28993 10.4137 9.29741 10.445 9.29117C10.4762 9.28494 10.5025 9.26498 10.5187 9.23753L11.65 7.18032C11.6762 7.13417 11.6637 7.07678 11.6225 7.04434C10.7675 6.36817 9.67995 6.03882 8.30119 6.03882C5.36368 6.03882 3.23242 8.10476 3.23242 10.9517C3.23242 13.7986 5.36368 15.8645 8.30119 15.8645C9.64495 15.8645 10.8062 15.4566 11.7512 14.6506C11.7887 14.6182 11.8 14.5646 11.7775 14.5196L10.7562 12.5123Z" fill="white"/>
</svg>
