<svg width="22" height="23" viewBox="0 0 22 23" fill="none" xmlns="http://www.w3.org/2000/svg">
<path d="M16 1.43091H6C3.23858 1.43091 1 3.66508 1 6.42108V16.4014C1 19.1574 3.23858 21.3916 6 21.3916H16C18.7614 21.3916 21 19.1574 21 16.4014V6.42108C21 3.66508 18.7614 1.43091 16 1.43091Z" stroke="white" stroke-width="2" stroke-linecap="round" stroke-linejoin="round"/>
<path d="M14.9997 10.7825C15.1231 11.6131 14.981 12.4613 14.5935 13.2067C14.206 13.952 13.5928 14.5564 12.8413 14.9339C12.0898 15.3114 11.2381 15.4428 10.4075 15.3094C9.57683 15.176 8.80947 14.7846 8.21454 14.1909C7.61962 13.5971 7.22744 12.8313 7.09377 12.0023C6.96011 11.1732 7.09177 10.3233 7.47003 9.57325C7.84829 8.82322 8.45389 8.21133 9.20069 7.8246C9.94749 7.43787 10.7975 7.29599 11.6297 7.41916C12.4786 7.5448 13.2646 7.93959 13.8714 8.54523C14.4782 9.15087 14.8738 9.93523 14.9997 10.7825Z" stroke="white" stroke-width="2" stroke-linecap="round" stroke-linejoin="round"/>
<path d="M16.5 5.92212H16.51" stroke="white" stroke-width="2" stroke-linecap="round" stroke-linejoin="round"/>
</svg>
