<svg width="24" height="21" viewBox="0 0 24 21" fill="none" xmlns="http://www.w3.org/2000/svg">
<path d="M23 1.44094C22.0424 2.1151 20.9821 2.63071 19.86 2.96794C19.2577 2.27681 18.4573 1.78696 17.567 1.56463C16.6767 1.3423 15.7395 1.39822 14.8821 1.72484C14.0247 2.05145 13.2884 2.633 12.773 3.39082C12.2575 4.14865 11.9877 5.04619 12 5.96205V6.96008C10.2426 7.00556 8.50127 6.61657 6.93101 5.82776C5.36074 5.03894 4.01032 3.87479 3 2.43898C3 2.43898 -1 11.4213 8 15.4135C5.94053 16.8087 3.48716 17.5083 1 17.4095C10 22.3997 21 17.4095 21 5.93211C20.9991 5.65411 20.9723 5.3768 20.92 5.10374C21.9406 4.09921 22.6608 2.83092 23 1.44094V1.44094Z" stroke="white" stroke-width="2" stroke-linecap="round" stroke-linejoin="round"/>
</svg>
