<svg width="25" height="18" viewBox="0 0 25 18" fill="none" xmlns="http://www.w3.org/2000/svg">
<path d="M22.5405 3.83636C22.4217 3.36271 22.1798 2.92873 21.8392 2.57826C21.4986 2.22779 21.0713 1.97323 20.6005 1.84031C18.8805 1.42114 12.0005 1.42114 12.0005 1.42114C12.0005 1.42114 5.12056 1.42114 3.40057 1.88023C2.92982 2.01315 2.50255 2.26771 2.16192 2.61818C1.82129 2.96865 1.57936 3.40263 1.46057 3.87628C1.14579 5.61839 0.991808 7.38564 1.00057 9.15583C0.989351 10.9393 1.14334 12.7201 1.46057 14.4753C1.59153 14.9342 1.83888 15.3517 2.17871 15.6874C2.51855 16.023 2.93939 16.2656 3.40057 16.3915C5.12056 16.8506 12.0005 16.8506 12.0005 16.8506C12.0005 16.8506 18.8805 16.8506 20.6005 16.3915C21.0713 16.2586 21.4986 16.004 21.8392 15.6536C22.1798 15.3031 22.4217 14.8691 22.5405 14.3954C22.8529 12.6665 23.0069 10.9127 23.0005 9.15583C23.0117 7.37231 22.8578 5.59158 22.5405 3.83636V3.83636Z" stroke="white" stroke-width="2" stroke-linecap="round" stroke-linejoin="round"/>
</svg>
